<svg width="449" height="76" viewBox="0 0 449 76" fill="none" xmlns="http://www.w3.org/2000/svg">
<g clip-path="url(#clip0_260_440)">
<g clip-path="url(#clip1_260_440)">
<path fill-rule="evenodd" clip-rule="evenodd" d="M404.634 74.1439C386.697 74.1439 376.864 72.0309 370.704 66.8367C364.544 61.6425 361.906 53.1839 361.906 37.8891C361.906 22.5942 364.453 14.2076 370.704 8.94142C376.956 3.67523 386.697 1.62109 404.634 1.62109C422.57 1.62109 432.403 3.73412 438.563 8.92834C444.723 14.1226 447.361 22.5812 447.361 37.876C447.361 53.1708 444.815 61.5575 438.563 66.8236C432.311 72.0898 422.57 74.1439 404.634 74.1439Z" fill="url(#paint0_linear_260_440)"/>
<path d="M404.63 3.27092C437.505 3.27092 445.72 10.1922 445.72 37.8904C445.72 65.5885 437.505 72.5098 404.63 72.5098C371.754 72.5098 363.539 65.5885 363.539 37.8904C363.539 10.1922 371.754 3.27092 404.63 3.27092ZM404.63 0C386.3 0 376.134 2.22423 369.646 7.69321C362.982 13.3061 360.266 22.0853 360.266 37.8904C360.266 53.6954 362.982 62.4746 369.646 68.0875C376.134 73.5565 386.267 75.7807 404.63 75.7807C422.992 75.7807 433.125 73.5565 439.613 68.0875C446.277 62.4746 448.994 53.6954 448.994 37.8904C448.994 22.0853 446.277 13.3061 439.613 7.69321C433.125 2.22423 422.992 0 404.63 0Z" fill="white"/>
<path d="M375.922 22.8809V28.5657H385.584V53.0453H392.569V28.5657H401.878L399.443 22.8809H375.922Z" fill="white"/>
<path d="M433.851 7.56055L417.865 44.4238L408.7 22.875H401.133L414.16 53.0394H421.06L439.585 10.3408C437.583 9.61535 435.661 8.68358 433.851 7.56055Z" fill="white"/>
</g>
<g clip-path="url(#clip2_260_440)">
<path d="M29.2707 37.9372C27.8195 37.0605 26.2616 36.3741 24.6352 35.8948C22.9404 35.3977 21.2455 34.9513 19.5506 34.5559C17.8557 34.1604 16.3077 33.7706 14.9066 33.3864C13.6922 33.0829 12.5434 32.5602 11.5168 31.844C11.1103 31.5582 10.7802 31.1768 10.5556 30.7335C10.331 30.2902 10.2187 29.7985 10.2287 29.3017C10.2132 28.4507 10.4815 27.6188 10.9913 26.9373C11.6535 26.1345 12.5379 25.5449 13.5337 25.2424C14.9821 24.7687 16.502 24.5507 18.0252 24.5984C19.9194 24.6074 21.8036 24.8725 23.6268 25.3865C25.628 25.9503 27.55 26.7646 29.347 27.8102L32.2623 20.6323C30.2276 19.3739 28.0003 18.4578 25.6691 17.9205C23.1858 17.3184 20.6397 17.014 18.0845 17.0137C14.8007 16.9015 11.5298 17.4789 8.48294 18.7086C6.17643 19.666 4.19378 21.2662 2.77116 23.3187C1.51298 25.2106 0.851688 27.4365 0.872894 29.7084C0.794573 31.5875 1.24998 33.4503 2.18642 35.0813C3.0329 36.463 4.19451 37.6246 5.57621 38.471C7.0315 39.355 8.58784 40.0606 10.2117 40.5727C11.9066 41.1151 13.6015 41.5727 15.2964 41.9456C16.9913 42.3184 18.5336 42.6998 19.9319 43.1066C21.1449 43.4309 22.292 43.9643 23.3217 44.6828C23.7319 44.9784 24.0631 45.3703 24.2862 45.8239C24.5093 46.2776 24.6176 46.7792 24.6014 47.2845C24.6007 48.1187 24.2999 48.9249 23.7539 49.5556C23.0719 50.3047 22.1897 50.8428 21.2116 51.1064C19.742 51.5149 18.2194 51.7006 16.6947 51.6573C14.2224 51.6544 11.7668 51.2509 9.42359 50.4624C7.21455 49.7519 5.12166 48.7211 3.2118 47.4031L0 54.5217C2.1856 56.0833 4.63831 57.2321 7.23717 57.9114C10.2906 58.7979 13.4558 59.2403 16.6354 59.225C19.9403 59.3347 23.2307 58.7396 26.2878 57.4792C28.5964 56.5062 30.5888 54.91 32.0419 52.8691C33.3082 51.0114 33.9791 48.8123 33.9656 46.5641C34.0362 44.7074 33.5808 42.8685 32.6521 41.2591C31.7992 39.9035 30.6413 38.7659 29.2707 37.9372Z" fill="white"/>
<path d="M69.6533 33.8573H51.0942V17.7559H41.6367V58.6027H51.0942V41.8572H69.6533V58.6027H79.1023V17.7559H69.6533V33.8573Z" fill="white"/>
<path d="M102.797 17.7559L84.5938 58.6027H94.28L97.9156 49.8486H116.856L120.475 58.6027H130.398L112.136 17.7559H102.797ZM100.907 42.6708L107.415 27.0354L113.89 42.6708H100.907Z" fill="white"/>
<path d="M162.963 45.4686C165.464 44.417 167.596 42.6475 169.09 40.3839C170.572 38.0398 171.324 35.3086 171.251 32.5365C171.327 29.7348 170.575 26.973 169.09 24.596C167.588 22.3391 165.458 20.5715 162.963 19.5113C159.975 18.2578 156.754 17.6513 153.514 17.7317H135.828V58.604H145.286V47.2228H153.955L161.802 58.604H172.014L162.887 45.5024L162.963 45.4686ZM159.523 27.3248C160.907 28.716 161.685 30.599 161.685 32.562C161.685 34.5249 160.907 36.408 159.523 37.7992C158.082 39.0647 155.904 39.6975 152.989 39.6975H145.286V25.4604H152.989C155.904 25.4604 158.082 26.0818 159.523 27.3248Z" fill="white"/>
<path d="M191.555 17.7559L173.352 58.6027H183.038L186.673 49.8486H205.614L209.241 58.6027H219.156L200.894 17.7559H191.555ZM189.665 42.6708L196.165 27.0354L202.639 42.6708H189.665Z" fill="white"/>
<path d="M240.682 46.9249L228.259 17.7559H218.047L235.674 58.6027H245.004L262.69 17.7559H253.292L240.682 46.9249Z" fill="white"/>
<path d="M301.474 23.064C299.437 21.1357 297.037 19.6294 294.415 18.6318C288.67 16.5238 282.364 16.5238 276.619 18.6318C273.98 19.6306 271.561 21.1363 269.5 23.064C267.492 24.9561 265.894 27.2405 264.805 29.7757C262.591 35.1585 262.591 41.1978 264.805 46.5806C265.888 49.1128 267.477 51.3968 269.475 53.2923C271.528 55.2307 273.948 56.7378 276.593 57.7245C279.457 58.7966 282.493 59.3309 285.551 59.3007C288.57 59.3312 291.568 58.7966 294.39 57.7245C297.005 56.7293 299.403 55.2356 301.449 53.3262C303.456 51.4313 305.056 49.1477 306.152 46.6144C307.302 43.9386 307.879 41.052 307.847 38.14C307.891 35.3144 307.345 32.5106 306.245 29.9076C305.145 27.3046 303.514 24.9594 301.457 23.0216L301.474 23.064ZM297.33 43.4874C296.722 45.041 295.799 46.4519 294.619 47.6314C293.466 48.7946 292.088 49.7089 290.568 50.3178C288.949 50.955 287.222 51.2716 285.483 51.25C283.744 51.2667 282.018 50.9503 280.398 50.3178C278.872 49.7174 277.488 48.802 276.339 47.6314C275.175 46.4357 274.265 45.0176 273.661 43.462C272.373 40.0485 272.373 36.2824 273.661 32.8689C274.268 31.3295 275.182 29.9299 276.348 28.7556C277.513 27.5812 278.906 26.6567 280.441 26.0385C282.059 25.4013 283.786 25.0846 285.526 25.1063C287.265 25.088 288.991 25.4046 290.61 26.0385C292.135 26.642 293.518 27.5569 294.669 28.7249C295.829 29.9141 296.74 31.323 297.347 32.8689C298.635 36.2913 298.635 40.065 297.347 43.4874H297.33Z" fill="white"/>
<path d="M323.713 50.8995L346.069 23.8829V17.7559H311.697V25.4591H333.645L311.23 52.4757V58.6027H346.95V50.8995H323.713Z" fill="white"/>
</g>
</g>
<defs>
<linearGradient id="paint0_linear_260_440" x1="361.906" y1="37.8891" x2="447.361" y2="37.8891" gradientUnits="userSpaceOnUse">
<stop stop-color="#FCA32A"/>
<stop offset="1" stop-color="#FC7425"/>
</linearGradient>
<clipPath id="clip0_260_440">
<rect width="449" height="76" fill="white"/>
</clipPath>
<clipPath id="clip1_260_440">
<rect width="89" height="76" fill="white" transform="translate(360)"/>
</clipPath>
<clipPath id="clip2_260_440">
<rect width="346.95" height="42.302" fill="white" transform="translate(0 17)"/>
</clipPath>
</defs>
</svg>
